# xmcd
#
# Track frame offsets:
#	182
#	16842
#	29817
#	45440
#	86675
#	104562
#	121370
#	141697
#	187635
#	218832
#	238970
#
# Disc length: 3585 seconds
#
# Revision: 0
# Processed by: cddbd v1.4PL0 Copyright (c) Steve Scherf et al.
# Submitted via: EasyCDDAExtractor 4.5.2.1
#
DISCID=9c0dff0b
DTITLE=Albert King - Jazz and Blues Collection - CD 79 
DYEAR=1900
DGENRE=Blues
TTITLE0=Get Out Of My Life Woman
TTITLE1=Flat Tire
TTITLE2=Born Under A Bad Sign
TTITLE3=I Got The Blues
TTITLE4=I Get Evil
TTITLE5=Watermelon Man
TTITLE6=Don't Burn Down The Bridge
TTITLE7=Blues At Sunrise
TTITLE8=Kansas City
TTITLE9=Overall Junction
TTITLE10=I'll Play The Blues For You
EXTD=
EXTT0=
EXTT1=
EXTT2=
EXTT3=
EXTT4=
EXTT5=
EXTT6=
EXTT7=
EXTT8=
EXTT9=
EXTT10=
PLAYORDER=
